<svg xmlns="http://www.w3.org/2000/svg" viewBox="0 0 220 130" fill="none">
  <defs>
    <linearGradient id="fq-ribbon-grad" x1="0%" y1="30%" x2="100%" y2="70%">
      <stop offset="0%" stop-color="#4ADE80" />
      <stop offset="30%" stop-color="#22C55E" />
      <stop offset="55%" stop-color="#06B6D4" />
      <stop offset="80%" stop-color="#38BDF8" />
      <stop offset="100%" stop-color="#3B82F6" />
    </linearGradient>
    <filter id="fq-logo-glow" x="-25%" y="-25%" width="150%" height="150%">
      <feDropShadow dx="0" dy="1" stdDeviation="3.5" flood-color="#22C55E" flood-opacity="0.4" />
      <feDropShadow dx="0" dy="2" stdDeviation="7" flood-color="#06B6D4" flood-opacity="0.3" />
    </filter>
  </defs>
  <g filter="url(#fq-logo-glow)">
    <path
      d="M 120 22 L 52 22 C 30 22, 16 36, 16 58 L 16 72 C 16 94, 32 110, 54 110 C 76 110, 96 94, 110 72 C 124 50, 144 34, 166 34 C 188 34, 204 50, 204 72 C 204 94, 188 110, 166 110 C 144 110, 124 94, 110 72 C 96 50, 76 34, 54 34 C 32 34, 16 50, 16 72"
      stroke="url(#fq-ribbon-grad)"
      stroke-width="18"
      stroke-linecap="round"
      stroke-linejoin="round"
      fill="none"
    />
  </g>
</svg>